<svg xmlns="http://www.w3.org/2000/svg" fill="none" viewBox="0 0 400 400"><g id="frictionless-logo_svg-frictionless-logo"><path id="frictionless-logo_svg-Rectangle 14" fill="#fff" stroke="#000" d="M.5.5h399v399H.5z"/><ellipse id="frictionless-logo_svg-Ellipse 5" cx="96" cy="241.5" fill="#000" rx="39" ry="18.5"/><ellipse id="frictionless-logo_svg-Ellipse 6" cx="201" cy="359.5" fill="#000" rx="39" ry="18.5"/><ellipse id="frictionless-logo_svg-Ellipse 7" cx="310" cy="240.5" fill="#000" rx="39" ry="18.5"/><path id="frictionless-logo_svg-Rectangle 15" fill="url(#frictionless-logo_svg-paint0_linear_806_2251)" d="M78 194h244v166H78z"/><path id="frictionless-logo_svg-Rectangle 16" fill="#fff" d="M161 178h79v64h-79z"/><path id="frictionless-logo_svg-Rectangle 17" fill="#d9d9d9" d="M161 159h79v64h-79z"/><g id="frictionless-logo_svg-Group 12"><path id="frictionless-logo_svg-Rectangle 24" stroke="#000" d="M357.5 12.5h37v31h-37z"/><g id="frictionless-logo_svg-Ellipse 22"><mask id="frictionless-logo_svg-path-9-inside-1_806_2251" fill="#fff"><path d="M395 43.5q-.01 1.29-1.45 2.49c-.95.79-2.35 1.5-4.12 2.1a34 34 0 0 1-6.16 1.42 53 53 0 0 1-14.54-.01c-2.3-.33-4.4-.8-6.17-1.4a13 13 0 0 1-4.11-2.11Q357 44.79 357 43.5z"/></mask><path stroke="#000" stroke-width="2" d="M395 43.5q-.01 1.29-1.45 2.49c-.95.79-2.35 1.5-4.12 2.1a34 34 0 0 1-6.16 1.42 53 53 0 0 1-14.54-.01c-2.3-.33-4.4-.8-6.17-1.4a13 13 0 0 1-4.11-2.11Q357 44.79 357 43.5z" mask="url(#frictionless-logo_svg-path-9-inside-1_806_2251)"/></g><g id="frictionless-logo_svg-Ellipse 23"><mask id="frictionless-logo_svg-path-10-inside-2_806_2251" fill="#fff"><path d="M395 12.5c0-1.72-2-3.38-5.56-4.6C385.87 6.68 381.04 6 376 6s-9.87.68-13.44 1.9C359 9.12 357 10.78 357 12.5z"/></mask><path stroke="#000" stroke-width="2" d="M395 12.5c0-1.72-2-3.38-5.56-4.6C385.87 6.68 381.04 6 376 6s-9.87.68-13.44 1.9C359 9.12 357 10.78 357 12.5z" mask="url(#frictionless-logo_svg-path-10-inside-2_806_2251)"/></g></g><path id="frictionless-logo_svg-Line 32" stroke="#000" stroke-dasharray="2 2" d="M0 27.5h357"/><path id="frictionless-logo_svg-Line 33" stroke="#000" stroke-dasharray="2 2" d="M322 276.5h78"/><path id="frictionless-logo_svg-Rectangle 26" fill="#fff" d="M358 42h36v1a2 2 0 0 1-2 2h-32a2 2 0 0 1-2-2z"/><path id="frictionless-logo_svg-Rectangle 27" fill="#fff" d="M358 14h36v-1a2 2 0 0 0-2-2h-32a2 2 0 0 0-2 2z"/></g><defs><linearGradient id="frictionless-logo_svg-paint0_linear_806_2251" x1="200" x2="200" y1="194" y2="360" gradientUnits="userSpaceOnUse"><stop stop-color="#fff"/><stop offset="1"/></linearGradient></defs></svg>