<svg xmlns="http://www.w3.org/2000/svg" fill="none" viewBox="0 0 400 400"><g id="kone-logo_svg-kone-logo"><path id="kone-logo_svg-Rectangle 14" fill="#fff" stroke="#000" d="M.5.5h399v399H.5z"/><path id="kone-logo_svg-Rectangle 19" fill="url(#kone-logo_svg-paint0_linear_806_2268)" d="M61 335a22 22 0 0 1 22-22h105a22 22 0 0 1 22 22v65H61z"/><ellipse id="kone-logo_svg-Ellipse 8" cx="128.5" cy="230" fill="url(#kone-logo_svg-paint1_linear_806_2268)" rx="24.5" ry="54"/><path id="kone-logo_svg-Rectangle 18" fill="#000" d="M107 146h43v58h-43z"/><ellipse id="kone-logo_svg-Ellipse 9" cx="284.5" cy="371.5" fill="#000" rx="74.5" ry="28.5"/><path id="kone-logo_svg-Rectangle 22" fill="#fff" d="M256 342h57v18h-57z"/><ellipse id="kone-logo_svg-Ellipse 14" cx="284.5" cy="342" fill="#d9d9d9" rx="28.5" ry="7"/><ellipse id="kone-logo_svg-Ellipse 15" cx="284.5" cy="360" fill="#fff" rx="28.5" ry="7"/><path id="kone-logo_svg-Rectangle 25" fill="#d9d9d9" d="M317 1h82v188h-82z"/><path id="kone-logo_svg-Line 36" stroke="#fff" d="M357.5 189V1"/></g><defs><linearGradient id="kone-logo_svg-paint0_linear_806_2268" x1="135.5" x2="135.5" y1="313" y2="400" gradientUnits="userSpaceOnUse"><stop stop-color="#fff"/><stop offset="1"/></linearGradient><linearGradient id="kone-logo_svg-paint1_linear_806_2268" x1="128.75" x2="128.35" y1="206.99" y2="284" gradientUnits="userSpaceOnUse"><stop stop-color="#fff"/><stop offset="1"/></linearGradient></defs></svg>